<svg xmlns="http://www.w3.org/2000/svg" xmlns:svgjs="http://svgjs.dev/svgjs" xmlns:xlink="http://www.w3.org/1999/xlink" id="logo-gen2" x="0" y="0" version="1.1" viewBox="0 0 503 100" xml:space="preserve" style="enable-background:new 0 0 503 100"><style type="text/css">.st0{stroke:#eb4747;stroke-width:2;stroke-linecap:square}.st0,.st1{fill:none}.st2,.st3{fill:none;stroke:#47d1eb;stroke-width:2;stroke-linecap:square}.st3{stroke:#b347eb}.st4{fill:#fff}</style><line x1="50" x2="50" y1="33.3" y2="66.7" class="st0"/><line x1="54.6" x2="45.4" y1="24.1" y2="75.9" class="st1"/><line x1="64.4" x2="35.6" y1="10.5" y2="89.5" class="st0"/><line x1="64.1" x2="35.9" y1="25.5" y2="74.5" class="st2"/><line x1="63.4" x2="36.6" y1="34" y2="66" class="st3"/><line x1="81.1" x2="18.9" y1="23.9" y2="76.1" class="st0"/><line x1="71.6" x2="28.4" y1="37.5" y2="62.5" class="st2"/><line x1="67.7" x2="32.3" y1="43.5" y2="56.5" class="st0"/><line x1="93.5" x2="6.5" y1="42.3" y2="57.7" class="st1"/><line x1="83.6" x2="16.4" y1="50" y2="50" class="st2"/><line x1="92.6" x2="7.4" y1="57.5" y2="42.5" class="st2"/><line x1="85.3" x2="14.7" y1="62.9" y2="37.1" class="st2"/><line x1="68.2" x2="31.8" y1="60.5" y2="39.5" class="st2"/><line x1="58.7" x2="41.3" y1="57.3" y2="42.7" class="st1"/><line x1="55.4" x2="44.6" y1="56.5" y2="43.5" class="st3"/><line x1="72.1" x2="27.9" y1="88.3" y2="11.7" class="st1"/><line x1="56" x2="44" y1="66.4" y2="33.6" class="st0"/><line x1="51.4" x2="48.6" y1="57.8" y2="42.2" class="st3"/><line x1="50" x2="50" y1="67.1" y2="32.9" class="st3"/><line x1="47" x2="53" y1="67.1" y2="32.9" class="st1"/><line x1="34.3" x2="65.7" y1="93.2" y2="6.8" class="st1"/><line x1="44.4" x2="55.6" y1="59.7" y2="40.3" class="st1"/><line x1="33.2" x2="66.8" y1="70" y2="30" class="st0"/><line x1="27.1" x2="72.9" y1="69.2" y2="30.8" class="st1"/><line x1="37" x2="63" y1="57.5" y2="42.5" class="st0"/><line x1="21" x2="79" y1="60.5" y2="39.5" class="st1"/><line x1="9.8" x2="90.2" y1="57.1" y2="42.9" class="st3"/><line x1="37.3" x2="62.7" y1="50" y2="50" class="st2"/><line x1="11.2" x2="88.8" y1="43.2" y2="56.8" class="st1"/><line x1="43.3" x2="56.7" y1="47.6" y2="52.4" class="st2"/><line x1="7.1" x2="92.9" y1="25.3" y2="74.7" class="st2"/><line x1="41.1" x2="58.9" y1="42.5" y2="57.5" class="st1"/><line x1="43.7" x2="56.3" y1="42.5" y2="57.5" class="st0"/><line x1="26.8" x2="73.2" y1="9.7" y2="90.3" class="st1"/><line x1="37.5" x2="62.5" y1="15.8" y2="84.2" class="st2"/><line x1="43.5" x2="56.5" y1="13.3" y2="86.7" class="st1"/><line x1="50" x2="50" y1="12.5" y2="87.5" class="st1"/><line x1="55.9" x2="44.1" y1="16.4" y2="83.6" class="st2"/><line x1="64.1" x2="35.9" y1="11.3" y2="88.7" class="st2"/><line x1="62.2" x2="37.8" y1="28.9" y2="71.1" class="st2"/><line x1="65" x2="35" y1="32.1" y2="67.9" class="st1"/><line x1="58.9" x2="41.1" y1="42.5" y2="57.5" class="st0"/><line x1="59.7" x2="40.3" y1="44.4" y2="55.6" class="st0"/><line x1="69.3" x2="30.7" y1="43" y2="57" class="st1"/><line x1="68.6" x2="31.4" y1="46.7" y2="53.3" class="st0"/><line x1="71.4" x2="28.6" y1="50" y2="50" class="st1"/><line x1="95.9" x2="4.1" y1="58.1" y2="41.9" class="st0"/><path d="M132,70.4h33.5v-9.1h-22.4V18H132V70.4z" class="st4"/><path d="M188.2,71.1c11.9,0,19.3-8.2,19.3-20.2c0-12.2-7.4-20.3-19.3-20.3c-11.9,0-19.3,8.1-19.3,20.3	C168.9,63,176.3,71.1,188.2,71.1z M188.3,62.7c-5.5,0-8.3-5-8.3-11.9c0-6.9,2.8-11.9,8.3-11.9c5.4,0,8.2,5.1,8.2,11.9	C196.5,57.6,193.7,62.7,188.3,62.7z" class="st4"/><path d="M230.2,85.9c11.2,0,19.2-5.1,19.2-15.2V31.1h-10.8v6.6h-0.4c-1.5-3.2-4.7-7.1-11.2-7.1	c-8.6,0-15.9,6.7-15.9,20.1c0,13.1,7.1,19.2,15.9,19.2c6.3,0,9.8-3.1,11.2-6.4h0.5v7.2c0,5.4-3.5,7.5-8.2,7.5	c-4.8,0-7.2-2.1-8.1-4.5L212.2,75C213.5,81.1,219.6,85.9,230.2,85.9z M230.4,61.6c-5.3,0-8.3-4.2-8.3-11c0-6.7,2.9-11.4,8.3-11.4	c5.3,0,8.3,4.5,8.3,11.4C238.7,57.5,235.6,61.6,230.4,61.6z" class="st4"/><path d="M273.6,71.1c11.9,0,19.3-8.2,19.3-20.2c0-12.2-7.4-20.3-19.3-20.3s-19.3,8.1-19.3,20.3	C254.3,63,261.7,71.1,273.6,71.1z M273.7,62.7c-5.5,0-8.3-5-8.3-11.9c0-6.9,2.8-11.9,8.3-11.9c5.4,0,8.2,5.1,8.2,11.9	C281.9,57.6,279.1,62.7,273.7,62.7z" class="st4"/><path d="M297.9,70.4h10.9V31.1h-10.9V70.4z M303.4,26c3.2,0,5.9-2.5,5.9-5.5c0-3-2.7-5.5-5.9-5.5	c-3.2,0-5.9,2.5-5.9,5.5C297.5,23.5,300.1,26,303.4,26z" class="st4"/><path d="M315.3,85.1h10.9v-21h0.3c1.5,3.3,4.8,6.9,11.1,6.9c8.9,0,15.9-7.1,15.9-20.2c0-13.5-7.3-20.2-15.9-20.2	c-6.6,0-9.7,3.9-11.2,7.1h-0.5v-6.6h-10.7V85.1z M326,50.7c0-7,3-11.5,8.3-11.5c5.4,0,8.3,4.7,8.3,11.5c0,6.9-2.9,11.6-8.3,11.6	C329,62.3,326,57.7,326,50.7z" class="st4"/><path d="M391.4,42.3c-1-7.2-6.8-11.7-16.7-11.7c-10,0-16.7,4.7-16.6,12.2c0,5.9,3.7,9.7,11.4,11.2l6.8,1.4	c3.4,0.7,5,1.9,5,3.9c-0.1,2.3-2.6,4-6.4,4c-3.9,0-6.5-1.7-7.1-4.9L357,59c1,7.5,7.4,12.1,17.8,12.1c10.2,0,17.5-5.2,17.5-12.9	c0-5.7-3.7-9.1-11.4-10.6l-7.1-1.4c-3.7-0.8-5-2-5-3.9c0-2.4,2.6-3.9,6-3.9c3.8,0,6,2.1,6.6,4.6L391.4,42.3z" class="st4"/><path d="M422.2,53.6c0,5.3-3.6,8-7.5,8c-4.1,0-6.8-2.9-6.8-7.5V31.1H397v25c0,9.2,5.4,14.8,13.3,14.8	c5.9,0,10.1-3,11.9-7.6h0.4v7.1h10.5V31.1h-10.9V53.6z" class="st4"/><path d="M439.6,70.4h10.9V46.8c0-4.3,2.8-7.2,6.4-7.2c3.6,0,6,2.5,6,6.3v24.5h10.6v-24c0-4.1,2.3-6.8,6.3-6.8	c3.5,0,6.1,2.2,6.1,6.5v24.3h10.9V43.9c0-8.5-5.1-13.4-12.4-13.4c-5.8,0-10.2,2.9-11.8,7.4h-0.4c-1.3-4.6-5.3-7.4-10.7-7.4	c-5.3,0-9.3,2.8-10.9,7.4H450v-6.9h-10.4V70.4z" class="st4"/></svg>